HIERARCHY
ROOT Hips
{
  OFFSET 49.6471 100.608 10.4414
  CHANNELS 6 Xposition Yposition Zposition Zrotation Xrotation Yrotation
  JOINT spine
  {
    OFFSET 0 8.81705 0.507025
    CHANNELS 3 Zrotation Xrotation Yrotation
    JOINT spine1
    {
      OFFSET 0 10.7766 0
      CHANNELS 3 Zrotation Xrotation Yrotation
      JOINT spine2
      {
        OFFSET 0 10.3259 0
        CHANNELS 3 Zrotation Xrotation Yrotation
        JOINT Neck
        {
          OFFSET 0 26.511 1.26395
          CHANNELS 3 Zrotation Xrotation Yrotation
          JOINT Head
          {
            OFFSET 0 8.00966 0
            CHANNELS 3 Zrotation Xrotation Yrotation
            End Site
            {
              OFFSET 0 19.3879 -6.39386
            }
          }
        }
        JOINT RightShoulder
        {
          OFFSET -4.34795 11.1512 -0.605422
          CHANNELS 3 Zrotation Xrotation Yrotation
          JOINT RightArm
          {
            OFFSET 0 14.6258 0
            CHANNELS 3 Zrotation Xrotation Yrotation
            JOINT RightArmRoll
            {
              OFFSET 0 7.3834 0
              CHANNELS 3 Zrotation Xrotation Yrotation
              JOINT RightForeArm
              {
                OFFSET 0 21.5052 0
                CHANNELS 3 Zrotation Xrotation Yrotation
                JOINT RightForeArmRoll
                {
                  OFFSET 0 8.28532 0
                  CHANNELS 3 Zrotation Xrotation Yrotation
                  JOINT RightHand
                  {
                    OFFSET 0 16.6268 0
                    CHANNELS 3 Zrotation Xrotation Yrotation
                    End Site
                    {
                      OFFSET 0 0 0
                    }
                  }
                }
              }
            }
          }
        }
        JOINT LeftShoulder
        {
          OFFSET 4.34795 11.1512 -0.605422
          CHANNELS 3 Zrotation Xrotation Yrotation
          JOINT LeftArm
          {
            OFFSET 0 14.6258 0
            CHANNELS 3 Zrotation Xrotation Yrotation
            JOINT LeftArmRoll
            {
              OFFSET 0 7.3834 0
              CHANNELS 3 Zrotation Xrotation Yrotation
              JOINT LeftForeArm
              {
                OFFSET 0 21.5052 0
                CHANNELS 3 Zrotation Xrotation Yrotation
                JOINT LeftForeArmRoll
                {
                  OFFSET 0 8.28532 0
                  CHANNELS 3 Zrotation Xrotation Yrotation
                  JOINT LeftHand
                  {
                    OFFSET 0 16.6268 0
                    CHANNELS 3 Zrotation Xrotation Yrotation
                    End Site
                    {
                      OFFSET 0 0 0
                    }
                  }
                }
              }
            }
          }
        }
      }
    }
  }
  JOINT RightUpLeg
  {
    OFFSET -7.8151 -1.43309 -1.20217
    CHANNELS 3 Zrotation Xrotation Yrotation
    JOINT RightUpLegRoll
    {
      OFFSET 0 19.4959 0
      CHANNELS 3 Zrotation Xrotation Yrotation
      JOINT RightLeg
      {
        OFFSET 0 -24.1427 0
        CHANNELS 3 Zrotation Xrotation Yrotation
        JOINT RightLegRoll
        {
          OFFSET 0 24.2217 0
          CHANNELS 3 Zrotation Xrotation Yrotation
          JOINT RightFoot
          {
            OFFSET 0 20.1605 0
            CHANNELS 3 Zrotation Xrotation Yrotation
            JOINT RightToeBase
            {
              OFFSET 0 16.8532 0
              CHANNELS 3 Zrotation Xrotation Yrotation
              End Site
              {
                OFFSET 0.00714343 8.16187 -0.940781
              }
            }
          }
        }
      }
    }
  }
  JOINT LeftUpLeg
  {
    OFFSET 7.8151 -1.43309 -1.20217
    CHANNELS 3 Zrotation Xrotation Yrotation
    JOINT LeftUpLegRoll
    {
      OFFSET 0 19.496 0
      CHANNELS 3 Zrotation Xrotation Yrotation
      JOINT LeftLeg
      {
        OFFSET 0 24.1426 0
        CHANNELS 3 Zrotation Xrotation Yrotation
        JOINT LeftLegRoll
        {
          OFFSET 0 24.4456 0
          CHANNELS 3 Zrotation Xrotation Yrotation
          JOINT LeftFoot
          {
            OFFSET 0 19.9366 0
            CHANNELS 3 Zrotation Xrotation Yrotation
            JOINT LeftToeBase
            {
              OFFSET 0 16.8532 0
              CHANNELS 3 Zrotation Xrotation Yrotation
              End Site
              {
                OFFSET -0.0320138 8.16187 -0.94078
              }
            }
          }
        }
      }
    }
  }
}
MOTION
Frames: 9
Frame Time: 0.00208333
51.3868 100.57 11.4376 -0.845439 -1.92696 0.356847 0.200413 -2.17914 -0.166296 0.395454 -0.356084 -0.351129 0.399909 1.28895 -0.357705 0.815392 24.5891 2.61799 -7.44148 -2.49775 1.92253 69.2917 -1.54572 -2.05229 104.857 16.5249 12.7468 -3.97569e-015 0 -6.36111e-015 14.4891 0.117171 -0.35564 -4.8389e-006 3.32074e-006 -3.0262 8.02893 -4.95144 0.697679 -61.0029 -5.014 3.26529 -111.407 14.97 -2.94893 -1.78906e-014 1.64303e-006 -3.18055e-015 -12.6366 2.71561 0.664254 3.34535e-008 -1.95279e-006 3 -8.02888 -4.95146 -0.697694 179.632 -0.70471 -0.803972 180 7.01555e-015 178.957 177.95 5.00257 179.76 1.72263e-007 -1.14387e-006 0.0431934 -18.3027 67.5572 19.1832 8.145 25.2322 -3.49136 -177.116 -0.738242 2.19396 4.54188e-006 -4.6773e-006 -1.10966 -2.23579 -8.08322 0.163811 -2.55644e-006 -1.13722e-006 -0.152703 19.7778 69.3726 -20.7283 -8.15382 25.5725 3.01907 
51.4044 100.572 11.4217 -0.850453 -1.92755 0.346383 0.199984 -2.17968 -0.166801 0.394698 -0.35717 -0.352088 0.399154 1.28787 -0.35866 0.810192 24.59 2.61837 -7.4299 -2.49756 1.92267 69.2866 -1.54986 -2.05385 104.858 16.5206 12.7401 1.59028e-015 1.27222e-014 3.18055e-015 14.4946 0.117168 -0.35567 -4.8389e-006 3.32074e-006 -3.02601 8.02893 -4.95144 0.697679 -61.0036 -5.0111 3.26363 -111.405 14.9675 -2.94937 1.27222e-014 1.64303e-006 1.59028e-015 -12.6387 2.71091 0.663395 3.34535e-008 -1.95279e-006 3 -8.02888 -4.95146 -0.697694 179.636 -0.701807 -0.808118 180 7.01555e-015 178.957 177.954 5.00926 179.76 1.72263e-007 -1.14387e-006 0.0431934 -18.3019 67.5562 19.1824 8.145 25.2322 -3.49136 -177.111 -0.731559 2.18852 4.54188e-006 -4.6773e-006 -1.10966 -2.23829 -8.10833 0.163369 -2.55644e-006 -1.13722e-006 -0.153333 19.7948 69.3904 -20.7465 -8.15382 25.5725 3.01955 
51.3863 100.561 11.437 -0.855434 -1.92817 0.33589 0.199537 -2.18023 -0.167305 0.393956 -0.35827 -0.353044 0.398412 1.28677 -0.359612 0.804774 24.5908 2.61902 -7.41813 -2.49698 1.92305 69.2816 -1.55386 -2.05535 104.86 16.5166 12.7339 -7.95139e-016 3.18055e-015 -0 14.4997 0.117165 -0.355893 -4.8389e-006 3.32074e-006 -3.02581 8.02893 -4.95144 0.697679 -61.0043 -5.00836 3.26207 -111.402 14.9652 -2.94996 -3.97569e-016 1.64303e-006 1.59028e-015 -12.6406 2.70569 0.662476 3.34535e-008 -1.95279e-006 3 -8.02888 -4.95146 -0.697694 179.64 -0.698988 -0.812474 180 7.01555e-015 178.957 177.96 5.01596 179.76 1.72263e-007 -1.14387e-006 0.0431934 -18.3012 67.5553 19.1815 8.145 25.2322 -3.49136 -177.105 -0.724732 2.18298 4.54188e-006 -4.6773e-006 -1.10966 -2.2409 -8.1338 0.162898 -2.55644e-006 -1.13722e-006 -0.153973 19.8122 69.4084 -20.7651 -8.15382 25.5725 3.02006 
51.3884 100.564 11.4446 -0.860391 -1.92879 0.325377 0.199076 -2.18078 -0.167808 0.393224 -0.35938 -0.353996 0.39768 1.28566 -0.360562 0.799203 24.5913 2.61985 -7.40622 -2.49613 1.92361 69.2766 -1.55777 -2.05682 104.862 16.513 12.7278 2.22639e-014 3.18055e-015 9.54166e-015 14.5045 0.117163 -0.356251 -4.8389e-006 3.32074e-006 -3.02563 8.02893 -4.95144 0.697679 -61.0048 -5.00572 3.26056 -111.4 14.9631 -2.95065 -9.54166e-015 1.64303e-006 1.59028e-015 -12.6423 2.70009 0.661515 3.34535e-008 -1.95279e-006 3 -8.02888 -4.95146 -0.697694 179.644 -0.696226 -0.816979 180 7.01555e-015 178.957 177.965 5.02266 179.76 1.72263e-007 -1.14387e-006 0.0431934 -18.3004 67.5543 19.1807 8.145 25.2322 -3.49136 -177.1 -0.717803 2.17736 4.54188e-006 -4.6773e-006 -1.10966 -2.24358 -8.15951 0.162406 -2.55644e-006 -1.13722e-006 -0.154621 19.8298 69.4267 -20.7839 -8.15382 25.5724 3.0206 
51.3934 100.57 11.4415 -0.865334 -1.92943 0.314852 0.198606 -2.18134 -0.168311 0.392498 -0.360495 -0.354948 0.396953 1.28454 -0.36151 0.793543 24.5918 2.62079 -7.39423 -2.49513 1.92426 69.2717 -1.56162 -2.05826 104.864 16.5094 12.7219 3.18055e-015 0 -0 14.5092 0.11716 -0.356687 -4.8389e-006 3.32074e-006 -3.02544 8.02893 -4.95144 0.697679 -61.0053 -5.00315 3.25909 -111.398 14.9611 -2.95141 -2.90226e-014 1.64303e-006 -7.95139e-015 -12.644 2.69429 0.660529 3.34535e-008 -1.95279e-006 3 -8.02888 -4.95146 -0.697694 179.649 -0.693498 -0.82157 180 7.01555e-015 178.957 177.97 5.02937 179.76 1.72263e-007 -1.14387e-006 0.0431934 -18.2996 67.5534 19.1799 8.145 25.2322 -3.49136 -177.094 -0.710815 2.17171 4.54188e-006 -4.6773e-006 -1.10966 -2.24629 -8.18537 0.161903 -2.55644e-006 -1.13722e-006 -0.155275 19.8475 69.445 -20.8028 -8.15382 25.5724 3.02116 
51.3942 100.568 11.42 -0.870274 -1.93006 0.304324 0.198135 -2.1819 -0.168814 0.391773 -0.361612 -0.355899 0.396227 1.28343 -0.362458 0.787859 24.5923 2.62176 -7.38221 -2.49408 1.92494 69.2668 -1.56546 -2.05969 104.866 16.506 12.7161 2.54444e-014 -3.18055e-015 7.95139e-015 14.5139 0.117158 -0.357144 -4.8389e-006 3.32074e-006 -3.02526 8.02893 -4.95144 0.697679 -61.0058 -5.0006 3.25763 -111.396 14.9591 -2.95218 -4.37326e-015 1.64303e-006 -0 -12.6456 2.68843 0.659537 3.34535e-008 -1.95279e-006 3 -8.02888 -4.95146 -0.697694 179.653 -0.690779 -0.826184 180 7.01555e-015 178.957 177.976 5.03609 179.759 1.72263e-007 -1.14387e-006 0.0431934 -18.2989 67.5524 19.1791 8.145 25.2322 -3.49136 -177.088 -0.703811 2.16604 4.54188e-006 -4.6773e-006 -1.10966 -2.24902 -8.21127 0.161396 -2.55644e-006 -1.13722e-006 -0.155929 19.8654 69.4634 -20.8218 -8.15381 25.5724 3.02172 
51.3921 100.547 11.4235 -0.875221 -1.93069 0.293801 0.197668 -2.18246 -0.169317 0.391045 -0.362726 -0.356851 0.3955 1.28231 -0.363407 0.782216 24.5928 2.62268 -7.37024 -2.4931 1.92557 69.2619 -1.56932 -2.06114 104.867 16.5024 12.7102 1.11319e-014 3.18055e-015 7.95139e-015 14.5186 0.117155 -0.357566 -4.8389e-006 3.32074e-006 -3.02508 8.02893 -4.95144 0.697679 -61.0063 -4.99802 3.25615 -111.394 14.9571 -2.95292 -1.43125e-014 1.64303e-006 -3.18055e-015 -12.6473 2.68266 0.658556 3.34535e-008 -1.95279e-006 3 -8.02888 -4.95146 -0.697694 179.657 -0.688045 -0.830759 180 7.01555e-015 178.957 177.981 5.04279 179.759 1.72263e-007 -1.14387e-006 0.0431934 -18.2981 67.5515 19.1782 8.145 25.2322 -3.49136 -177.083 -0.696833 2.16039 4.54188e-006 -4.6773e-006 -1.10966 -2.25173 -8.2371 0.160895 -2.55644e-006 -1.13722e-006 -0.156581 19.8831 69.4818 -20.8408 -8.15381 25.5724 3.02227 
51.3945 100.551 11.4314 -0.880184 -1.93132 0.283292 0.197209 -2.18301 -0.169821 0.390311 -0.363834 -0.357804 0.394765 1.28121 -0.364357 0.776677 24.5934 2.62347 -7.35836 -2.49231 1.92609 69.2569 -1.57325 -2.06261 104.869 16.4987 12.7041 7.15625e-015 3.18055e-015 4.77083e-015 14.5235 0.117153 -0.357895 -4.8389e-006 3.32074e-006 -3.02489 8.02893 -4.95144 0.697679 -61.0068 -4.99536 3.25463 -111.392 14.955 -2.95359 1.03368e-014 1.64303e-006 3.18055e-015 -12.6491 2.67715 0.657604 3.34535e-008 -1.95279e-006 3 -8.02888 -4.95146 -0.697694 179.662 -0.685271 -0.835233 180 7.01555e-015 178.957 177.987 5.04949 179.759 1.72263e-007 -1.14387e-006 0.0431934 -18.2973 67.5505 19.1774 8.145 25.2322 -3.49136 -177.077 -0.689926 2.1548 4.54188e-006 -4.6773e-006 -1.10966 -2.25439 -8.26276 0.160407 -2.55644e-006 -1.13722e-006 -0.157228 19.9008 69.4999 -20.8597 -8.15381 25.5724 3.02281 
51.4016 100.552 11.4299 -0.885174 -1.93193 0.272805 0.196766 -2.18356 -0.170325 0.389566 -0.364931 -0.358761 0.39402 1.28011 -0.36531 0.771308 24.5942 2.62405 -7.34663 -2.49182 1.92642 69.2519 -1.57729 -2.06413 104.871 16.4947 12.6978 1.11319e-014 9.54166e-015 1.59028e-015 14.5287 0.11715 -0.358074 -4.8389e-006 3.32074e-006 -3.0247 8.02893 -4.95144 0.697679 -61.0074 -4.99258 3.25304 -111.389 14.9527 -2.95415 7.15625e-015 1.64303e-006 3.18055e-015 -12.651 2.67204 0.656698 3.34535e-008 -1.95279e-006 3 -8.02888 -4.95146 -0.697694 179.666 -0.682433 -0.839542 180 7.01555e-015 178.957 177.992 5.05618 179.759 1.72263e-007 -1.14387e-006 0.0431934 -18.2966 67.5496 19.1766 8.145 25.2322 -3.49136 -177.072 -0.68313 2.14927 4.54188e-006 -4.6773e-006 -1.10966 -2.25698 -8.28815 0.159942 -2.55644e-006 -1.13722e-006 -0.157866 19.9183 69.5179 -20.8784 -8.15381 25.5723 3.02332 
